<?xml version="1.0" encoding="utf-8"?>
<!DOCTYPE score-partwise  PUBLIC "-//Recordare//DTD MusicXML 4.0 Partwise//EN" "http://www.musicxml.org/dtds/partwise.dtd">
<score-partwise version="4.0">
  <work>
    <work-title>Scotland the Brave</work-title>
  </work>
  <movement-title>Scotland the Brave</movement-title>
  <identification>
    <creator type="composer">Trad. Scottish (melody, late 19th c. or earlier; first widely</creator>
    <creator type="composer">circulated through pipe-band repertoire by the early 20th century)</creator>
    <encoding>
      <encoding-date>2026-05-08</encoding-date>
      <software>music21 v.9.9.1</software>
    </encoding>
    <miscellaneous>
      <miscellaneous-field name="humdrum:ONM">1</miscellaneous-field>
      <miscellaneous-field name="dcterms:alternative">Pipe-band setting</miscellaneous-field>
    </miscellaneous>
  </identification>
  <defaults>
    <scaling>
      <millimeters>7</millimeters>
      <tenths>40</tenths>
    </scaling>
  </defaults>
  <part-list>
    <score-part id="Pd623aad490ee4dd3ca797803861655ef">
      <part-name />
    </score-part>
  </part-list>
  <!--=========================== Part 1 ===========================-->
  <part id="Pd623aad490ee4dd3ca797803861655ef">
    <!--========================= Measure 0 ==========================-->
    <measure implicit="no" number="0">
      <attributes>
        <divisions>10080</divisions>
        <key>
          <fifths>2</fifths>
          <mode>mixolydian</mode>
        </key>
        <time>
          <beats>4</beats>
          <beat-type>4</beat-type>
        </time>
        <clef>
          <sign>G</sign>
          <line>2</line>
        </clef>
      </attributes>
      <barline location="left">
        <repeat direction="forward" />
      </barline>
      <direction>
        <direction-type>
          <metronome parentheses="no">
            <beat-unit>quarter</beat-unit>
            <per-minute>90</per-minute>
          </metronome>
        </direction-type>
        <sound tempo="90" />
      </direction>
      <note>
        <grace slash="yes" />
        <pitch>
          <step>G</step>
          <octave>4</octave>
        </pitch>
        <type>eighth</type>
      </note>
      <note>
        <grace slash="yes" />
        <pitch>
          <step>D</step>
          <octave>5</octave>
        </pitch>
        <type>eighth</type>
      </note>
      <note>
        <grace slash="yes" />
        <pitch>
          <step>G</step>
          <octave>4</octave>
        </pitch>
        <type>eighth</type>
      </note>
      <note>
        <pitch>
          <step>A</step>
          <octave>4</octave>
        </pitch>
        <duration>10080</duration>
        <type>quarter</type>
      </note>
      <note>
        <pitch>
          <step>C</step>
          <alter>1</alter>
          <octave>5</octave>
        </pitch>
        <duration>10080</duration>
        <type>quarter</type>
      </note>
      <note>
        <pitch>
          <step>E</step>
          <octave>5</octave>
        </pitch>
        <duration>10080</duration>
        <type>quarter</type>
      </note>
      <note>
        <pitch>
          <step>C</step>
          <alter>1</alter>
          <octave>5</octave>
        </pitch>
        <duration>10080</duration>
        <type>quarter</type>
      </note>
    </measure>
    <!--========================= Measure 1 ==========================-->
    <measure implicit="no" number="1">
      <note>
        <grace slash="yes" />
        <pitch>
          <step>G</step>
          <octave>5</octave>
        </pitch>
        <type>eighth</type>
      </note>
      <note>
        <grace slash="yes" />
        <pitch>
          <step>A</step>
          <octave>5</octave>
        </pitch>
        <type>eighth</type>
      </note>
      <note>
        <grace slash="yes" />
        <pitch>
          <step>G</step>
          <octave>5</octave>
        </pitch>
        <type>eighth</type>
      </note>
      <note>
        <pitch>
          <step>A</step>
          <octave>5</octave>
        </pitch>
        <duration>10080</duration>
        <type>quarter</type>
      </note>
      <note>
        <pitch>
          <step>F</step>
          <alter>1</alter>
          <octave>5</octave>
        </pitch>
        <duration>10080</duration>
        <type>quarter</type>
      </note>
      <note>
        <pitch>
          <step>E</step>
          <octave>5</octave>
        </pitch>
        <duration>10080</duration>
        <type>quarter</type>
      </note>
      <note>
        <pitch>
          <step>C</step>
          <alter>1</alter>
          <octave>5</octave>
        </pitch>
        <duration>10080</duration>
        <type>quarter</type>
      </note>
    </measure>
    <!--========================= Measure 2 ==========================-->
    <measure implicit="no" number="2">
      <note>
        <grace slash="yes" />
        <pitch>
          <step>G</step>
          <octave>4</octave>
        </pitch>
        <type>eighth</type>
      </note>
      <note>
        <grace slash="yes" />
        <pitch>
          <step>D</step>
          <octave>5</octave>
        </pitch>
        <type>eighth</type>
      </note>
      <note>
        <grace slash="yes" />
        <pitch>
          <step>G</step>
          <octave>4</octave>
        </pitch>
        <type>eighth</type>
      </note>
      <note>
        <pitch>
          <step>A</step>
          <octave>4</octave>
        </pitch>
        <duration>10080</duration>
        <type>quarter</type>
      </note>
      <note>
        <pitch>
          <step>C</step>
          <alter>1</alter>
          <octave>5</octave>
        </pitch>
        <duration>10080</duration>
        <type>quarter</type>
      </note>
      <note>
        <pitch>
          <step>E</step>
          <octave>5</octave>
        </pitch>
        <duration>10080</duration>
        <type>quarter</type>
      </note>
      <note>
        <pitch>
          <step>C</step>
          <alter>1</alter>
          <octave>5</octave>
        </pitch>
        <duration>10080</duration>
        <type>quarter</type>
      </note>
    </measure>
    <!--========================= Measure 3 ==========================-->
    <measure implicit="no" number="3">
      <note>
        <grace slash="yes" />
        <pitch>
          <step>G</step>
          <octave>4</octave>
        </pitch>
        <type>eighth</type>
      </note>
      <note>
        <grace slash="yes" />
        <pitch>
          <step>E</step>
          <octave>5</octave>
        </pitch>
        <type>eighth</type>
      </note>
      <note>
        <grace slash="yes" />
        <pitch>
          <step>G</step>
          <octave>4</octave>
        </pitch>
        <type>eighth</type>
      </note>
      <note>
        <pitch>
          <step>D</step>
          <octave>5</octave>
        </pitch>
        <duration>10080</duration>
        <type>quarter</type>
      </note>
      <note>
        <pitch>
          <step>C</step>
          <alter>1</alter>
          <octave>5</octave>
        </pitch>
        <duration>10080</duration>
        <type>quarter</type>
      </note>
      <note>
        <grace slash="yes" />
        <pitch>
          <step>G</step>
          <octave>4</octave>
        </pitch>
        <type>eighth</type>
      </note>
      <note>
        <grace slash="yes" />
        <pitch>
          <step>D</step>
          <octave>5</octave>
        </pitch>
        <type>eighth</type>
      </note>
      <note>
        <grace slash="yes" />
        <pitch>
          <step>G</step>
          <octave>4</octave>
        </pitch>
        <type>eighth</type>
      </note>
      <note>
        <pitch>
          <step>A</step>
          <octave>4</octave>
        </pitch>
        <duration>10080</duration>
        <type>quarter</type>
      </note>
      <note>
        <pitch>
          <step>G</step>
          <octave>4</octave>
        </pitch>
        <duration>10080</duration>
        <type>quarter</type>
      </note>
    </measure>
    <!--========================= Measure 4 ==========================-->
    <measure implicit="no" number="4">
      <note>
        <grace slash="yes" />
        <pitch>
          <step>G</step>
          <octave>4</octave>
        </pitch>
        <type>eighth</type>
      </note>
      <note>
        <grace slash="yes" />
        <pitch>
          <step>D</step>
          <octave>5</octave>
        </pitch>
        <type>eighth</type>
      </note>
      <note>
        <grace slash="yes" />
        <pitch>
          <step>G</step>
          <octave>4</octave>
        </pitch>
        <type>eighth</type>
      </note>
      <note>
        <pitch>
          <step>A</step>
          <octave>4</octave>
        </pitch>
        <duration>10080</duration>
        <type>quarter</type>
      </note>
      <note>
        <pitch>
          <step>C</step>
          <alter>1</alter>
          <octave>5</octave>
        </pitch>
        <duration>10080</duration>
        <type>quarter</type>
      </note>
      <note>
        <pitch>
          <step>E</step>
          <octave>5</octave>
        </pitch>
        <duration>10080</duration>
        <type>quarter</type>
      </note>
      <note>
        <pitch>
          <step>C</step>
          <alter>1</alter>
          <octave>5</octave>
        </pitch>
        <duration>10080</duration>
        <type>quarter</type>
      </note>
    </measure>
    <!--========================= Measure 5 ==========================-->
    <measure implicit="no" number="5">
      <note>
        <grace slash="yes" />
        <pitch>
          <step>G</step>
          <octave>5</octave>
        </pitch>
        <type>eighth</type>
      </note>
      <note>
        <grace slash="yes" />
        <pitch>
          <step>A</step>
          <octave>5</octave>
        </pitch>
        <type>eighth</type>
      </note>
      <note>
        <grace slash="yes" />
        <pitch>
          <step>G</step>
          <octave>5</octave>
        </pitch>
        <type>eighth</type>
      </note>
      <note>
        <pitch>
          <step>A</step>
          <octave>5</octave>
        </pitch>
        <duration>10080</duration>
        <type>quarter</type>
      </note>
      <note>
        <pitch>
          <step>F</step>
          <alter>1</alter>
          <octave>5</octave>
        </pitch>
        <duration>10080</duration>
        <type>quarter</type>
      </note>
      <note>
        <pitch>
          <step>E</step>
          <octave>5</octave>
        </pitch>
        <duration>10080</duration>
        <type>quarter</type>
      </note>
      <note>
        <pitch>
          <step>C</step>
          <alter>1</alter>
          <octave>5</octave>
        </pitch>
        <duration>10080</duration>
        <type>quarter</type>
      </note>
    </measure>
    <!--========================= Measure 6 ==========================-->
    <measure implicit="no" number="6">
      <note>
        <pitch>
          <step>F</step>
          <alter>1</alter>
          <octave>5</octave>
        </pitch>
        <duration>10080</duration>
        <type>quarter</type>
      </note>
      <note>
        <pitch>
          <step>E</step>
          <octave>5</octave>
        </pitch>
        <duration>10080</duration>
        <type>quarter</type>
      </note>
      <note>
        <pitch>
          <step>C</step>
          <alter>1</alter>
          <octave>5</octave>
        </pitch>
        <duration>10080</duration>
        <type>quarter</type>
      </note>
      <note>
        <grace slash="yes" />
        <pitch>
          <step>G</step>
          <octave>4</octave>
        </pitch>
        <type>eighth</type>
      </note>
      <note>
        <grace slash="yes" />
        <pitch>
          <step>D</step>
          <octave>5</octave>
        </pitch>
        <type>eighth</type>
      </note>
      <note>
        <grace slash="yes" />
        <pitch>
          <step>G</step>
          <octave>4</octave>
        </pitch>
        <type>eighth</type>
      </note>
      <note>
        <pitch>
          <step>A</step>
          <octave>4</octave>
        </pitch>
        <duration>10080</duration>
        <type>quarter</type>
      </note>
    </measure>
    <!--========================= Measure 7 ==========================-->
    <measure implicit="no" number="7">
      <note>
        <grace slash="yes" />
        <pitch>
          <step>G</step>
          <octave>4</octave>
        </pitch>
        <type>eighth</type>
      </note>
      <note>
        <grace slash="yes" />
        <pitch>
          <step>B</step>
          <octave>4</octave>
        </pitch>
        <type>eighth</type>
      </note>
      <note>
        <grace slash="yes" />
        <pitch>
          <step>G</step>
          <octave>4</octave>
        </pitch>
        <type>eighth</type>
      </note>
      <note>
        <pitch>
          <step>A</step>
          <octave>4</octave>
        </pitch>
        <duration>40320</duration>
        <type>whole</type>
      </note>
      <barline location="right">
        <repeat direction="backward" />
      </barline>
    </measure>
    <!--========================= Measure 8 ==========================-->
    <measure implicit="no" number="8">
      <barline location="left">
        <repeat direction="forward" />
      </barline>
      <note>
        <grace slash="yes" />
        <pitch>
          <step>G</step>
          <octave>5</octave>
        </pitch>
        <type>eighth</type>
      </note>
      <note>
        <grace slash="yes" />
        <pitch>
          <step>E</step>
          <octave>5</octave>
        </pitch>
        <type>eighth</type>
      </note>
      <note>
        <pitch>
          <step>E</step>
          <octave>5</octave>
        </pitch>
        <duration>10080</duration>
        <type>quarter</type>
      </note>
      <note>
        <grace slash="yes" />
        <pitch>
          <step>G</step>
          <octave>5</octave>
        </pitch>
        <type>eighth</type>
      </note>
      <note>
        <grace slash="yes" />
        <pitch>
          <step>A</step>
          <octave>5</octave>
        </pitch>
        <type>eighth</type>
      </note>
      <note>
        <grace slash="yes" />
        <pitch>
          <step>G</step>
          <octave>5</octave>
        </pitch>
        <type>eighth</type>
      </note>
      <note>
        <pitch>
          <step>A</step>
          <octave>5</octave>
        </pitch>
        <duration>20160</duration>
        <type>half</type>
      </note>
      <note>
        <pitch>
          <step>A</step>
          <octave>5</octave>
        </pitch>
        <duration>10080</duration>
        <type>quarter</type>
      </note>
    </measure>
    <!--========================= Measure 9 ==========================-->
    <measure implicit="no" number="9">
      <note>
        <grace slash="yes" />
        <pitch>
          <step>G</step>
          <octave>5</octave>
        </pitch>
        <type>eighth</type>
      </note>
      <note>
        <grace slash="yes" />
        <pitch>
          <step>F</step>
          <alter>1</alter>
          <octave>5</octave>
        </pitch>
        <type>eighth</type>
      </note>
      <note>
        <pitch>
          <step>F</step>
          <alter>1</alter>
          <octave>5</octave>
        </pitch>
        <duration>10080</duration>
        <type>quarter</type>
      </note>
      <note>
        <pitch>
          <step>E</step>
          <octave>5</octave>
        </pitch>
        <duration>10080</duration>
        <type>quarter</type>
      </note>
      <note>
        <pitch>
          <step>C</step>
          <alter>1</alter>
          <octave>5</octave>
        </pitch>
        <duration>10080</duration>
        <type>quarter</type>
      </note>
      <note>
        <pitch>
          <step>E</step>
          <octave>5</octave>
        </pitch>
        <duration>10080</duration>
        <type>quarter</type>
      </note>
    </measure>
    <!--========================= Measure 10 =========================-->
    <measure implicit="no" number="10">
      <note>
        <grace slash="yes" />
        <pitch>
          <step>G</step>
          <octave>5</octave>
        </pitch>
        <type>eighth</type>
      </note>
      <note>
        <grace slash="yes" />
        <pitch>
          <step>E</step>
          <octave>5</octave>
        </pitch>
        <type>eighth</type>
      </note>
      <note>
        <pitch>
          <step>E</step>
          <octave>5</octave>
        </pitch>
        <duration>10080</duration>
        <type>quarter</type>
      </note>
      <note>
        <grace slash="yes" />
        <pitch>
          <step>G</step>
          <octave>5</octave>
        </pitch>
        <type>eighth</type>
      </note>
      <note>
        <grace slash="yes" />
        <pitch>
          <step>A</step>
          <octave>5</octave>
        </pitch>
        <type>eighth</type>
      </note>
      <note>
        <grace slash="yes" />
        <pitch>
          <step>G</step>
          <octave>5</octave>
        </pitch>
        <type>eighth</type>
      </note>
      <note>
        <pitch>
          <step>A</step>
          <octave>5</octave>
        </pitch>
        <duration>20160</duration>
        <type>half</type>
      </note>
      <note>
        <pitch>
          <step>A</step>
          <octave>5</octave>
        </pitch>
        <duration>10080</duration>
        <type>quarter</type>
      </note>
    </measure>
    <!--========================= Measure 11 =========================-->
    <measure implicit="no" number="11">
      <note>
        <grace slash="yes" />
        <pitch>
          <step>G</step>
          <octave>5</octave>
        </pitch>
        <type>eighth</type>
      </note>
      <note>
        <grace slash="yes" />
        <pitch>
          <step>F</step>
          <alter>1</alter>
          <octave>5</octave>
        </pitch>
        <type>eighth</type>
      </note>
      <note>
        <pitch>
          <step>F</step>
          <alter>1</alter>
          <octave>5</octave>
        </pitch>
        <duration>10080</duration>
        <type>quarter</type>
      </note>
      <note>
        <pitch>
          <step>E</step>
          <octave>5</octave>
        </pitch>
        <duration>10080</duration>
        <type>quarter</type>
      </note>
      <note>
        <pitch>
          <step>C</step>
          <alter>1</alter>
          <octave>5</octave>
        </pitch>
        <duration>20160</duration>
        <type>half</type>
      </note>
    </measure>
    <!--========================= Measure 12 =========================-->
    <measure implicit="no" number="12">
      <note>
        <grace slash="yes" />
        <pitch>
          <step>G</step>
          <octave>5</octave>
        </pitch>
        <type>eighth</type>
      </note>
      <note>
        <grace slash="yes" />
        <pitch>
          <step>E</step>
          <octave>5</octave>
        </pitch>
        <type>eighth</type>
      </note>
      <note>
        <pitch>
          <step>E</step>
          <octave>5</octave>
        </pitch>
        <duration>10080</duration>
        <type>quarter</type>
      </note>
      <note>
        <grace slash="yes" />
        <pitch>
          <step>G</step>
          <octave>5</octave>
        </pitch>
        <type>eighth</type>
      </note>
      <note>
        <grace slash="yes" />
        <pitch>
          <step>A</step>
          <octave>5</octave>
        </pitch>
        <type>eighth</type>
      </note>
      <note>
        <grace slash="yes" />
        <pitch>
          <step>G</step>
          <octave>5</octave>
        </pitch>
        <type>eighth</type>
      </note>
      <note>
        <pitch>
          <step>A</step>
          <octave>5</octave>
        </pitch>
        <duration>20160</duration>
        <type>half</type>
      </note>
      <note>
        <pitch>
          <step>A</step>
          <octave>5</octave>
        </pitch>
        <duration>10080</duration>
        <type>quarter</type>
      </note>
    </measure>
    <!--========================= Measure 13 =========================-->
    <measure implicit="no" number="13">
      <note>
        <grace slash="yes" />
        <pitch>
          <step>G</step>
          <octave>5</octave>
        </pitch>
        <type>eighth</type>
      </note>
      <note>
        <grace slash="yes" />
        <pitch>
          <step>F</step>
          <alter>1</alter>
          <octave>5</octave>
        </pitch>
        <type>eighth</type>
      </note>
      <note>
        <pitch>
          <step>F</step>
          <alter>1</alter>
          <octave>5</octave>
        </pitch>
        <duration>10080</duration>
        <type>quarter</type>
      </note>
      <note>
        <pitch>
          <step>E</step>
          <octave>5</octave>
        </pitch>
        <duration>10080</duration>
        <type>quarter</type>
      </note>
      <note>
        <pitch>
          <step>C</step>
          <alter>1</alter>
          <octave>5</octave>
        </pitch>
        <duration>10080</duration>
        <type>quarter</type>
      </note>
      <note>
        <pitch>
          <step>E</step>
          <octave>5</octave>
        </pitch>
        <duration>10080</duration>
        <type>quarter</type>
      </note>
    </measure>
    <!--========================= Measure 14 =========================-->
    <measure implicit="no" number="14">
      <note>
        <pitch>
          <step>F</step>
          <alter>1</alter>
          <octave>5</octave>
        </pitch>
        <duration>10080</duration>
        <type>quarter</type>
      </note>
      <note>
        <pitch>
          <step>G</step>
          <octave>5</octave>
        </pitch>
        <duration>10080</duration>
        <type>quarter</type>
      </note>
      <note>
        <pitch>
          <step>A</step>
          <octave>5</octave>
        </pitch>
        <duration>10080</duration>
        <type>quarter</type>
      </note>
      <note>
        <pitch>
          <step>F</step>
          <alter>1</alter>
          <octave>5</octave>
        </pitch>
        <duration>10080</duration>
        <type>quarter</type>
      </note>
    </measure>
    <!--========================= Measure 15 =========================-->
    <measure implicit="no" number="15">
      <note>
        <grace slash="yes" />
        <pitch>
          <step>G</step>
          <octave>4</octave>
        </pitch>
        <type>eighth</type>
      </note>
      <note>
        <grace slash="yes" />
        <pitch>
          <step>B</step>
          <octave>4</octave>
        </pitch>
        <type>eighth</type>
      </note>
      <note>
        <grace slash="yes" />
        <pitch>
          <step>G</step>
          <octave>4</octave>
        </pitch>
        <type>eighth</type>
      </note>
      <note>
        <pitch>
          <step>A</step>
          <octave>4</octave>
        </pitch>
        <duration>40320</duration>
        <type>whole</type>
      </note>
      <barline location="right">
        <repeat direction="backward" />
      </barline>
    </measure>
  </part>
</score-partwise>