<?xml version="1.0" encoding="UTF-8"?>
<svg xmlns="http://www.w3.org/2000/svg" width="900" height="802" viewBox="0 0 900 802">
  <style>
    .cut { fill: none; stroke: #111; stroke-width: 1.5; }
    .score { stroke: #2c7a7b; stroke-width: 0.7; }
    .vent { fill: none; stroke: #b45309; stroke-width: 1.2; stroke-dasharray: 4 3; }
    .label { font: 13px sans-serif; fill: #111; }
    .note { font: 12px sans-serif; fill: #444; }
  </style>
  <text x="20" y="26" class="label">temperate-na-four-chamber-bat-house generated layout sanity check</text>
  <text x="20" y="44" class="note">Not CAM-ready joinery. Cut list and welfare gates come from geometry_params.json.</text>
  <g transform="scale(0.38)"><g id="back_panel">
<rect x="20.0" y="48.0" width="508.0" height="914.0" class="cut" />
<line x1="28.0" y1="61.0" x2="520.0" y2="61.0" class="score" />
<line x1="28.0" y1="74.0" x2="520.0" y2="74.0" class="score" />
<line x1="28.0" y1="87.0" x2="520.0" y2="87.0" class="score" />
<line x1="28.0" y1="100.0" x2="520.0" y2="100.0" class="score" />
<line x1="28.0" y1="113.0" x2="520.0" y2="113.0" class="score" />
<line x1="28.0" y1="126.0" x2="520.0" y2="126.0" class="score" />
<line x1="28.0" y1="139.0" x2="520.0" y2="139.0" class="score" />
<line x1="28.0" y1="152.0" x2="520.0" y2="152.0" class="score" />
<line x1="28.0" y1="165.0" x2="520.0" y2="165.0" class="score" />
<line x1="28.0" y1="178.0" x2="520.0" y2="178.0" class="score" />
<line x1="28.0" y1="191.0" x2="520.0" y2="191.0" class="score" />
<line x1="28.0" y1="204.0" x2="520.0" y2="204.0" class="score" />
<line x1="28.0" y1="217.0" x2="520.0" y2="217.0" class="score" />
<line x1="28.0" y1="230.0" x2="520.0" y2="230.0" class="score" />
<line x1="28.0" y1="243.0" x2="520.0" y2="243.0" class="score" />
<line x1="28.0" y1="256.0" x2="520.0" y2="256.0" class="score" />
<line x1="28.0" y1="269.0" x2="520.0" y2="269.0" class="score" />
<line x1="28.0" y1="282.0" x2="520.0" y2="282.0" class="score" />
<line x1="28.0" y1="295.0" x2="520.0" y2="295.0" class="score" />
<line x1="28.0" y1="308.0" x2="520.0" y2="308.0" class="score" />
<line x1="28.0" y1="321.0" x2="520.0" y2="321.0" class="score" />
<line x1="28.0" y1="334.0" x2="520.0" y2="334.0" class="score" />
<line x1="28.0" y1="347.0" x2="520.0" y2="347.0" class="score" />
<line x1="28.0" y1="360.0" x2="520.0" y2="360.0" class="score" />
<line x1="28.0" y1="373.0" x2="520.0" y2="373.0" class="score" />
<line x1="28.0" y1="386.0" x2="520.0" y2="386.0" class="score" />
<line x1="28.0" y1="399.0" x2="520.0" y2="399.0" class="score" />
<line x1="28.0" y1="412.0" x2="520.0" y2="412.0" class="score" />
<line x1="28.0" y1="425.0" x2="520.0" y2="425.0" class="score" />
<line x1="28.0" y1="438.0" x2="520.0" y2="438.0" class="score" />
<line x1="28.0" y1="451.0" x2="520.0" y2="451.0" class="score" />
<line x1="28.0" y1="464.0" x2="520.0" y2="464.0" class="score" />
<line x1="28.0" y1="477.0" x2="520.0" y2="477.0" class="score" />
<line x1="28.0" y1="490.0" x2="520.0" y2="490.0" class="score" />
<line x1="28.0" y1="503.0" x2="520.0" y2="503.0" class="score" />
<line x1="28.0" y1="516.0" x2="520.0" y2="516.0" class="score" />
<line x1="28.0" y1="529.0" x2="520.0" y2="529.0" class="score" />
<line x1="28.0" y1="542.0" x2="520.0" y2="542.0" class="score" />
<line x1="28.0" y1="555.0" x2="520.0" y2="555.0" class="score" />
<line x1="28.0" y1="568.0" x2="520.0" y2="568.0" class="score" />
<line x1="28.0" y1="581.0" x2="520.0" y2="581.0" class="score" />
<line x1="28.0" y1="594.0" x2="520.0" y2="594.0" class="score" />
<line x1="28.0" y1="607.0" x2="520.0" y2="607.0" class="score" />
<line x1="28.0" y1="620.0" x2="520.0" y2="620.0" class="score" />
<line x1="28.0" y1="633.0" x2="520.0" y2="633.0" class="score" />
<line x1="28.0" y1="646.0" x2="520.0" y2="646.0" class="score" />
<line x1="28.0" y1="659.0" x2="520.0" y2="659.0" class="score" />
<line x1="28.0" y1="672.0" x2="520.0" y2="672.0" class="score" />
<line x1="28.0" y1="685.0" x2="520.0" y2="685.0" class="score" />
<line x1="28.0" y1="698.0" x2="520.0" y2="698.0" class="score" />
<line x1="28.0" y1="711.0" x2="520.0" y2="711.0" class="score" />
<line x1="28.0" y1="724.0" x2="520.0" y2="724.0" class="score" />
<line x1="28.0" y1="737.0" x2="520.0" y2="737.0" class="score" />
<line x1="28.0" y1="750.0" x2="520.0" y2="750.0" class="score" />
<line x1="28.0" y1="763.0" x2="520.0" y2="763.0" class="score" />
<line x1="28.0" y1="776.0" x2="520.0" y2="776.0" class="score" />
<line x1="28.0" y1="789.0" x2="520.0" y2="789.0" class="score" />
<line x1="28.0" y1="802.0" x2="520.0" y2="802.0" class="score" />
<line x1="28.0" y1="815.0" x2="520.0" y2="815.0" class="score" />
<line x1="28.0" y1="828.0" x2="520.0" y2="828.0" class="score" />
<line x1="28.0" y1="841.0" x2="520.0" y2="841.0" class="score" />
<line x1="28.0" y1="854.0" x2="520.0" y2="854.0" class="score" />
<line x1="28.0" y1="867.0" x2="520.0" y2="867.0" class="score" />
<line x1="28.0" y1="880.0" x2="520.0" y2="880.0" class="score" />
<line x1="28.0" y1="893.0" x2="520.0" y2="893.0" class="score" />
<line x1="28.0" y1="906.0" x2="520.0" y2="906.0" class="score" />
<line x1="28.0" y1="919.0" x2="520.0" y2="919.0" class="score" />
<line x1="28.0" y1="932.0" x2="520.0" y2="932.0" class="score" />
<line x1="28.0" y1="945.0" x2="520.0" y2="945.0" class="score" />
<text x="20.0" y="42.0" class="label">back_panel x1</text>
</g></g><g transform="scale(0.38)"><g id="upper_front_panel">
<rect x="20.0" y="429.3" width="508.0" height="572.0" class="cut" />
<text x="20.0" y="423.3" class="label">upper_front_panel x1</text>
</g></g><g transform="scale(0.38)"><g id="lower_front_panel">
<rect x="20.0" y="680.7" width="508.0" height="178.0" class="cut" />
<line x1="28.0" y1="693.7" x2="520.0" y2="693.7" class="score" />
<line x1="28.0" y1="706.7" x2="520.0" y2="706.7" class="score" />
<line x1="28.0" y1="719.7" x2="520.0" y2="719.7" class="score" />
<line x1="28.0" y1="732.7" x2="520.0" y2="732.7" class="score" />
<line x1="28.0" y1="745.7" x2="520.0" y2="745.7" class="score" />
<line x1="28.0" y1="758.7" x2="520.0" y2="758.7" class="score" />
<line x1="28.0" y1="771.7" x2="520.0" y2="771.7" class="score" />
<line x1="28.0" y1="784.7" x2="520.0" y2="784.7" class="score" />
<line x1="28.0" y1="797.7" x2="520.0" y2="797.7" class="score" />
<line x1="28.0" y1="810.7" x2="520.0" y2="810.7" class="score" />
<line x1="28.0" y1="823.7" x2="520.0" y2="823.7" class="score" />
<line x1="28.0" y1="836.7" x2="520.0" y2="836.7" class="score" />
<rect x="39.0" y="667.7" width="470.0" height="13.0" class="vent" />
<text x="20.0" y="674.7" class="label">lower_front_panel x1</text>
</g></g><g transform="scale(0.38)"><g id="roof_panel">
<rect x="249.0" y="48.0" width="559.0" height="178.0" class="cut" />
<text x="249.0" y="42.0" class="label">roof_panel x1</text>
</g></g><g transform="scale(0.38)"><g id="side_wall">
<polygon points="249.0,149.6 354.0,198.6 354.0,1063.6 249.0,1063.6" class="cut" />
<rect x="259.0" y="783.6" width="85.0" height="13.0" class="vent side-vent-slot" />
<text x="249.0" y="143.6" class="label">side_wall x2</text>
</g></g><g transform="scale(0.38)"><g id="partition">
<rect x="497.5" y="48.0" width="470.0" height="813.0" class="cut" />
<line x1="505.5" y1="61.0" x2="959.5" y2="61.0" class="score" />
<line x1="505.5" y1="74.0" x2="959.5" y2="74.0" class="score" />
<line x1="505.5" y1="87.0" x2="959.5" y2="87.0" class="score" />
<line x1="505.5" y1="100.0" x2="959.5" y2="100.0" class="score" />
<line x1="505.5" y1="113.0" x2="959.5" y2="113.0" class="score" />
<line x1="505.5" y1="126.0" x2="959.5" y2="126.0" class="score" />
<line x1="505.5" y1="139.0" x2="959.5" y2="139.0" class="score" />
<line x1="505.5" y1="152.0" x2="959.5" y2="152.0" class="score" />
<line x1="505.5" y1="165.0" x2="959.5" y2="165.0" class="score" />
<line x1="505.5" y1="178.0" x2="959.5" y2="178.0" class="score" />
<line x1="505.5" y1="191.0" x2="959.5" y2="191.0" class="score" />
<line x1="505.5" y1="204.0" x2="959.5" y2="204.0" class="score" />
<line x1="505.5" y1="217.0" x2="959.5" y2="217.0" class="score" />
<line x1="505.5" y1="230.0" x2="959.5" y2="230.0" class="score" />
<line x1="505.5" y1="243.0" x2="959.5" y2="243.0" class="score" />
<line x1="505.5" y1="256.0" x2="959.5" y2="256.0" class="score" />
<line x1="505.5" y1="269.0" x2="959.5" y2="269.0" class="score" />
<line x1="505.5" y1="282.0" x2="959.5" y2="282.0" class="score" />
<line x1="505.5" y1="295.0" x2="959.5" y2="295.0" class="score" />
<line x1="505.5" y1="308.0" x2="959.5" y2="308.0" class="score" />
<line x1="505.5" y1="321.0" x2="959.5" y2="321.0" class="score" />
<line x1="505.5" y1="334.0" x2="959.5" y2="334.0" class="score" />
<line x1="505.5" y1="347.0" x2="959.5" y2="347.0" class="score" />
<line x1="505.5" y1="360.0" x2="959.5" y2="360.0" class="score" />
<line x1="505.5" y1="373.0" x2="959.5" y2="373.0" class="score" />
<line x1="505.5" y1="386.0" x2="959.5" y2="386.0" class="score" />
<line x1="505.5" y1="399.0" x2="959.5" y2="399.0" class="score" />
<line x1="505.5" y1="412.0" x2="959.5" y2="412.0" class="score" />
<line x1="505.5" y1="425.0" x2="959.5" y2="425.0" class="score" />
<line x1="505.5" y1="438.0" x2="959.5" y2="438.0" class="score" />
<line x1="505.5" y1="451.0" x2="959.5" y2="451.0" class="score" />
<line x1="505.5" y1="464.0" x2="959.5" y2="464.0" class="score" />
<line x1="505.5" y1="477.0" x2="959.5" y2="477.0" class="score" />
<line x1="505.5" y1="490.0" x2="959.5" y2="490.0" class="score" />
<line x1="505.5" y1="503.0" x2="959.5" y2="503.0" class="score" />
<line x1="505.5" y1="516.0" x2="959.5" y2="516.0" class="score" />
<line x1="505.5" y1="529.0" x2="959.5" y2="529.0" class="score" />
<line x1="505.5" y1="542.0" x2="959.5" y2="542.0" class="score" />
<line x1="505.5" y1="555.0" x2="959.5" y2="555.0" class="score" />
<line x1="505.5" y1="568.0" x2="959.5" y2="568.0" class="score" />
<line x1="505.5" y1="581.0" x2="959.5" y2="581.0" class="score" />
<line x1="505.5" y1="594.0" x2="959.5" y2="594.0" class="score" />
<line x1="505.5" y1="607.0" x2="959.5" y2="607.0" class="score" />
<line x1="505.5" y1="620.0" x2="959.5" y2="620.0" class="score" />
<line x1="505.5" y1="633.0" x2="959.5" y2="633.0" class="score" />
<line x1="505.5" y1="646.0" x2="959.5" y2="646.0" class="score" />
<line x1="505.5" y1="659.0" x2="959.5" y2="659.0" class="score" />
<line x1="505.5" y1="672.0" x2="959.5" y2="672.0" class="score" />
<line x1="505.5" y1="685.0" x2="959.5" y2="685.0" class="score" />
<line x1="505.5" y1="698.0" x2="959.5" y2="698.0" class="score" />
<line x1="505.5" y1="711.0" x2="959.5" y2="711.0" class="score" />
<line x1="505.5" y1="724.0" x2="959.5" y2="724.0" class="score" />
<line x1="505.5" y1="737.0" x2="959.5" y2="737.0" class="score" />
<line x1="505.5" y1="750.0" x2="959.5" y2="750.0" class="score" />
<line x1="505.5" y1="763.0" x2="959.5" y2="763.0" class="score" />
<line x1="505.5" y1="776.0" x2="959.5" y2="776.0" class="score" />
<line x1="505.5" y1="789.0" x2="959.5" y2="789.0" class="score" />
<line x1="505.5" y1="802.0" x2="959.5" y2="802.0" class="score" />
<line x1="505.5" y1="815.0" x2="959.5" y2="815.0" class="score" />
<line x1="505.5" y1="828.0" x2="959.5" y2="828.0" class="score" />
<line x1="505.5" y1="841.0" x2="959.5" y2="841.0" class="score" />
<circle cx="662.0" cy="118.0" r="19.0" class="cut" />
<circle cx="803.0" cy="118.0" r="19.0" class="cut" />
<text x="497.5" y="42.0" class="label">partition x3</text>
</g></g><g transform="scale(0.38)"><g id="side_spacer_strip">
<rect x="497.5" y="390.9" width="19.0" height="813.0" class="cut" />
<text x="497.5" y="384.9" class="label">side_spacer_strip x8</text>
</g></g><g transform="scale(0.38)"><g id="top_spacer_strip">
<rect x="497.5" y="733.9" width="470.0" height="19.0" class="cut" />
<text x="497.5" y="727.9" class="label">top_spacer_strip x4</text>
</g></g><g transform="scale(0.38)"><g id="building_mount_batten_optional">
<rect x="712.1" y="48.0" width="64.0" height="762.0" class="cut" />
<text x="712.1" y="42.0" class="label">building_mount_batten_optional x2</text>
</g></g>
</svg>
