<svg xmlns="http://www.w3.org/2000/svg" viewBox="0 0 572 274" role="img" aria-label="Fingering chart for great-highland-pipe">
<title>Fingering chart -- great-highland-pipe</title>
<style>
.label { font: 12px Inter, sans-serif; fill: #2A2A2A; }
.scheme { font: 10px Inter, sans-serif; fill: #888; }
.body  { fill: none; stroke: #2A2A2A; stroke-width: 1.5; }
.closed { fill: #2A2A2A; stroke: #2A2A2A; }
.open   { fill: #FFFFFF; stroke: #2A2A2A; }
.unknown { fill: #FFD8D8; stroke: #C44; stroke-dasharray: 3 2; }
</style>
<text x="16" y="24" class="scheme">scheme: ghp-chanter-9note (placeholder; add a real fingering JSON for accurate output)</text>
<text x="46.0" y="38" class="label" text-anchor="middle">G4</text>
<rect x="28" y="46" width="36" height="196" rx="8" class="body"/>
<circle cx="46.0" cy="64.0" r="6" class="closed"/>
<circle cx="46.0" cy="86.85714285714286" r="6" class="closed"/>
<circle cx="46.0" cy="109.71428571428571" r="6" class="closed"/>
<circle cx="46.0" cy="132.57142857142856" r="6" class="closed"/>
<circle cx="46.0" cy="155.42857142857142" r="6" class="closed"/>
<circle cx="46.0" cy="178.28571428571428" r="6" class="closed"/>
<circle cx="46.0" cy="201.14285714285714" r="6" class="closed"/>
<circle cx="46.0" cy="224.0" r="6" class="closed"/>
<text x="106.0" y="38" class="label" text-anchor="middle">A4</text>
<rect x="88" y="46" width="36" height="196" rx="8" class="body"/>
<circle cx="106.0" cy="64.0" r="6" class="closed"/>
<circle cx="106.0" cy="86.85714285714286" r="6" class="closed"/>
<circle cx="106.0" cy="109.71428571428571" r="6" class="closed"/>
<circle cx="106.0" cy="132.57142857142856" r="6" class="closed"/>
<circle cx="106.0" cy="155.42857142857142" r="6" class="closed"/>
<circle cx="106.0" cy="178.28571428571428" r="6" class="closed"/>
<circle cx="106.0" cy="201.14285714285714" r="6" class="closed"/>
<circle cx="106.0" cy="224.0" r="6" class="open"/>
<text x="166.0" y="38" class="label" text-anchor="middle">B4</text>
<rect x="148" y="46" width="36" height="196" rx="8" class="body"/>
<circle cx="166.0" cy="64.0" r="6" class="closed"/>
<circle cx="166.0" cy="86.85714285714286" r="6" class="closed"/>
<circle cx="166.0" cy="109.71428571428571" r="6" class="closed"/>
<circle cx="166.0" cy="132.57142857142856" r="6" class="closed"/>
<circle cx="166.0" cy="155.42857142857142" r="6" class="closed"/>
<circle cx="166.0" cy="178.28571428571428" r="6" class="closed"/>
<circle cx="166.0" cy="201.14285714285714" r="6" class="open"/>
<circle cx="166.0" cy="224.0" r="6" class="open"/>
<text x="226.0" y="38" class="label" text-anchor="middle">C5</text>
<rect x="208" y="46" width="36" height="196" rx="8" class="body"/>
<circle cx="226.0" cy="64.0" r="6" class="unknown"/>
<circle cx="226.0" cy="86.85714285714286" r="6" class="unknown"/>
<circle cx="226.0" cy="109.71428571428571" r="6" class="unknown"/>
<circle cx="226.0" cy="132.57142857142856" r="6" class="unknown"/>
<circle cx="226.0" cy="155.42857142857142" r="6" class="unknown"/>
<circle cx="226.0" cy="178.28571428571428" r="6" class="unknown"/>
<circle cx="226.0" cy="201.14285714285714" r="6" class="unknown"/>
<circle cx="226.0" cy="224.0" r="6" class="unknown"/>
<text x="286.0" y="38" class="label" text-anchor="middle">D5</text>
<rect x="268" y="46" width="36" height="196" rx="8" class="body"/>
<circle cx="286.0" cy="64.0" r="6" class="closed"/>
<circle cx="286.0" cy="86.85714285714286" r="6" class="closed"/>
<circle cx="286.0" cy="109.71428571428571" r="6" class="closed"/>
<circle cx="286.0" cy="132.57142857142856" r="6" class="closed"/>
<circle cx="286.0" cy="155.42857142857142" r="6" class="open"/>
<circle cx="286.0" cy="178.28571428571428" r="6" class="open"/>
<circle cx="286.0" cy="201.14285714285714" r="6" class="open"/>
<circle cx="286.0" cy="224.0" r="6" class="open"/>
<text x="346.0" y="38" class="label" text-anchor="middle">E5</text>
<rect x="328" y="46" width="36" height="196" rx="8" class="body"/>
<circle cx="346.0" cy="64.0" r="6" class="closed"/>
<circle cx="346.0" cy="86.85714285714286" r="6" class="closed"/>
<circle cx="346.0" cy="109.71428571428571" r="6" class="closed"/>
<circle cx="346.0" cy="132.57142857142856" r="6" class="open"/>
<circle cx="346.0" cy="155.42857142857142" r="6" class="open"/>
<circle cx="346.0" cy="178.28571428571428" r="6" class="open"/>
<circle cx="346.0" cy="201.14285714285714" r="6" class="open"/>
<circle cx="346.0" cy="224.0" r="6" class="open"/>
<text x="406.0" y="38" class="label" text-anchor="middle">F5</text>
<rect x="388" y="46" width="36" height="196" rx="8" class="body"/>
<circle cx="406.0" cy="64.0" r="6" class="unknown"/>
<circle cx="406.0" cy="86.85714285714286" r="6" class="unknown"/>
<circle cx="406.0" cy="109.71428571428571" r="6" class="unknown"/>
<circle cx="406.0" cy="132.57142857142856" r="6" class="unknown"/>
<circle cx="406.0" cy="155.42857142857142" r="6" class="unknown"/>
<circle cx="406.0" cy="178.28571428571428" r="6" class="unknown"/>
<circle cx="406.0" cy="201.14285714285714" r="6" class="unknown"/>
<circle cx="406.0" cy="224.0" r="6" class="unknown"/>
<text x="466.0" y="38" class="label" text-anchor="middle">G5</text>
<rect x="448" y="46" width="36" height="196" rx="8" class="body"/>
<circle cx="466.0" cy="64.0" r="6" class="open"/>
<circle cx="466.0" cy="86.85714285714286" r="6" class="closed"/>
<circle cx="466.0" cy="109.71428571428571" r="6" class="open"/>
<circle cx="466.0" cy="132.57142857142856" r="6" class="open"/>
<circle cx="466.0" cy="155.42857142857142" r="6" class="open"/>
<circle cx="466.0" cy="178.28571428571428" r="6" class="open"/>
<circle cx="466.0" cy="201.14285714285714" r="6" class="open"/>
<circle cx="466.0" cy="224.0" r="6" class="open"/>
<text x="526.0" y="38" class="label" text-anchor="middle">A5</text>
<rect x="508" y="46" width="36" height="196" rx="8" class="body"/>
<circle cx="526.0" cy="64.0" r="6" class="open"/>
<circle cx="526.0" cy="86.85714285714286" r="6" class="open"/>
<circle cx="526.0" cy="109.71428571428571" r="6" class="open"/>
<circle cx="526.0" cy="132.57142857142856" r="6" class="open"/>
<circle cx="526.0" cy="155.42857142857142" r="6" class="open"/>
<circle cx="526.0" cy="178.28571428571428" r="6" class="open"/>
<circle cx="526.0" cy="201.14285714285714" r="6" class="open"/>
<circle cx="526.0" cy="224.0" r="6" class="open"/>
</svg>